REM DIRINDEX 1\5,1\2\6,1\2\7,1\3\8,1\3\9,1\4\10,1\4\11,1\4\12
REM DIRNAME cjc026,folder01,folder02,folder03,folder04,folder05,folder06,folder07,folder08,folder09,folder10,folder11
TITLE ""
FILE "EJE_DB3000_5th_5C_15.mp3" MP3
  TRACK 01 AUDIO
    TITLE "0:"
    INDEX 01 00:00:00
  TRACK 02 AUDIO
    TITLE "10:cjc026_10698"
    INDEX 01 00:00:08
  TRACK 03 AUDIO
    TITLE "0:"
    INDEX 01 00:02:74
  TRACK 04 AUDIO
    TITLE "11:cjc026_10699"
    INDEX 01 00:03:36
  TRACK 05 AUDIO
    TITLE "0:"
    INDEX 01 00:04:69
  TRACK 06 AUDIO
    TITLE "12:cjc026_10700"
    INDEX 01 00:05:27
  TRACK 07 AUDIO
    TITLE "0:"
    INDEX 01 00:08:20
  TRACK 08 AUDIO
    TITLE "10:cjc026_10701"
    INDEX 01 00:08:56
  TRACK 09 AUDIO
    TITLE "0:"
    INDEX 01 00:10:03
  TRACK 10 AUDIO
    TITLE "11:cjc026_10702"
    INDEX 01 00:10:38
  TRACK 11 AUDIO
    TITLE "0:"
    INDEX 01 00:11:55
  TRACK 12 AUDIO
    TITLE "12:cjc026_10703"
    INDEX 01 00:12:15
  TRACK 13 AUDIO
    TITLE "0:"
    INDEX 01 00:13:34
  TRACK 14 AUDIO
    TITLE "10:cjc026_10704"
    INDEX 01 00:13:72
  TRACK 15 AUDIO
    TITLE "0:"
    INDEX 01 00:15:14
  TRACK 16 AUDIO
    TITLE "11:cjc026_10705"
    INDEX 01 00:15:52
  TRACK 17 AUDIO
    TITLE "0:"
    INDEX 01 00:16:69
  TRACK 18 AUDIO
    TITLE "12:cjc026_10706"
    INDEX 01 00:17:29
  TRACK 19 AUDIO
    TITLE "0:"
    INDEX 01 00:18:45
  TRACK 20 AUDIO
    TITLE "10:cjc026_10707"
    INDEX 01 00:19:08
  TRACK 21 AUDIO
    TITLE "0:"
    INDEX 01 00:20:41
  TRACK 22 AUDIO
    TITLE "11:cjc026_10708"
    INDEX 01 00:21:07
  TRACK 23 AUDIO
    TITLE "0:"
    INDEX 01 00:22:24
  TRACK 24 AUDIO
    TITLE "12:cjc026_10709"
    INDEX 01 00:22:59
  TRACK 25 AUDIO
    TITLE "0:"
    INDEX 01 00:24:17
  TRACK 26 AUDIO
    TITLE "10:cjc026_10710"
    INDEX 01 00:24:57
  TRACK 27 AUDIO
    TITLE "0:"
    INDEX 01 00:25:74
  TRACK 28 AUDIO
    TITLE "11:cjc026_10711"
    INDEX 01 00:26:37
  TRACK 29 AUDIO
    TITLE "0:"
    INDEX 01 00:27:70
  TRACK 30 AUDIO
    TITLE "12:cjc026_10712"
    INDEX 01 00:28:33
  TRACK 31 AUDIO
    TITLE "0:"
    INDEX 01 00:29:49
  TRACK 32 AUDIO
    TITLE "10:cjc026_10713"
    INDEX 01 00:30:12
  TRACK 33 AUDIO
    TITLE "0:"
    INDEX 01 00:31:29
  TRACK 34 AUDIO
    TITLE "11:cjc026_10714"
    INDEX 01 00:31:64
  TRACK 35 AUDIO
    TITLE "0:"
    INDEX 01 00:33:14
  TRACK 36 AUDIO
    TITLE "12:cjc026_10715"
    INDEX 01 00:33:52
  TRACK 37 AUDIO
    TITLE "0:"
    INDEX 01 00:34:66
  TRACK 38 AUDIO
    TITLE "10:cjc026_10716"
    INDEX 01 00:35:29
  TRACK 39 AUDIO
    TITLE "0:"
    INDEX 01 00:36:62
  TRACK 40 AUDIO
    TITLE "11:cjc026_10717"
    INDEX 01 00:37:24
  TRACK 41 AUDIO
    TITLE "0:"
    INDEX 01 00:38:49
  TRACK 42 AUDIO
    TITLE "12:cjc026_10718"
    INDEX 01 00:39:12
  TRACK 43 AUDIO
    TITLE "0:"
    INDEX 01 00:40:40
  TRACK 44 AUDIO
    TITLE "10:cjc026_10719"
    INDEX 01 00:41:05
  TRACK 45 AUDIO
    TITLE "0:"
    INDEX 01 00:42:22
  TRACK 46 AUDIO
    TITLE "11:cjc026_10720"
    INDEX 01 00:42:57
  TRACK 47 AUDIO
    TITLE "0:"
    INDEX 01 00:43:69
  TRACK 48 AUDIO
    TITLE "12:cjc026_10721"
    INDEX 01 00:44:29
  TRACK 49 AUDIO
    TITLE "0:"
    INDEX 01 00:45:45
  TRACK 50 AUDIO
    TITLE "10:cjc026_10722"
    INDEX 01 00:46:06
  TRACK 51 AUDIO
    TITLE "0:"
    INDEX 01 00:47:41
  TRACK 52 AUDIO
    TITLE "11:cjc026_10723"
    INDEX 01 00:48:04
  TRACK 53 AUDIO
    TITLE "0:"
    INDEX 01 00:49:37
  TRACK 54 AUDIO
    TITLE "12:cjc026_10724"
    INDEX 01 00:49:72
  TRACK 55 AUDIO
    TITLE "0:"
    INDEX 01 00:51:30
  TRACK 56 AUDIO
    TITLE "10:cjc026_10725"
    INDEX 01 00:51:68
  TRACK 57 AUDIO
    TITLE "0:"
    INDEX 01 00:53:31
  TRACK 58 AUDIO
    TITLE "11:cjc026_10726"
    INDEX 01 00:53:66
  TRACK 59 AUDIO
    TITLE "0:"
    INDEX 01 00:55:46
  TRACK 60 AUDIO
    TITLE "12:cjc026_10727"
    INDEX 01 00:56:06
  TRACK 61 AUDIO
    TITLE "0:"
    INDEX 01 00:57:42
  TRACK 62 AUDIO
    TITLE "10:cjc026_10728"
    INDEX 01 00:58:05
  TRACK 63 AUDIO
    TITLE "0:"
    INDEX 01 00:59:24
  TRACK 64 AUDIO
    TITLE "11:cjc026_10729"
    INDEX 01 00:59:62
  TRACK 65 AUDIO
    TITLE "0:"
    INDEX 01 01:00:73
  TRACK 66 AUDIO
    TITLE "12:cjc026_10730"
    INDEX 01 01:01:33
  TRACK 67 AUDIO
    TITLE "0:"
    INDEX 01 01:02:53
  TRACK 68 AUDIO
    TITLE "10:cjc026_10731"
    INDEX 01 01:03:18
  TRACK 69 AUDIO
    TITLE "0:"
    INDEX 01 01:04:70
  TRACK 70 AUDIO
    TITLE "11:cjc026_10732"
    INDEX 01 01:05:25
  TRACK 71 AUDIO
    TITLE "0:"
    INDEX 01 01:06:71
  TRACK 72 AUDIO
    TITLE "12:cjc026_10733"
    INDEX 01 01:07:32
  TRACK 73 AUDIO
    TITLE "0:"
    INDEX 01 01:09:09
  TRACK 74 AUDIO
    TITLE "10:cjc026_10734"
    INDEX 01 01:09:44
  TRACK 75 AUDIO
    TITLE "0:"
    INDEX 01 01:11:26
  TRACK 76 AUDIO
    TITLE "11:cjc026_10735"
    INDEX 01 01:11:56
  TRACK 77 AUDIO
    TITLE "0:"
    INDEX 01 01:13:30
  TRACK 78 AUDIO
    TITLE "12:cjc026_10736"
    INDEX 01 01:13:62
  TRACK 79 AUDIO
    TITLE "0:"
    INDEX 01 01:15:44
